# Blender v2.93.5 OBJ File: ''
# www.blender.org
mtllib Blockkenv pillar.mtl
o Cube.004
v 14.826071 -3.614857 22.280230
v 14.826071 38.593826 22.280230
v 14.826071 -3.614857 -6.173086
v 14.826071 38.593826 -6.173086
v -0.067887 38.593826 -6.173086
v -0.067887 -3.614857 22.280230
v -0.067887 -3.614857 -6.173086
v -0.067887 38.593826 22.280230
vt 0.375000 0.369137
vt 0.625000 0.369137
vt 0.625000 0.500000
vt 0.375000 0.500000
vt 0.625000 0.750000
vt 0.375000 0.750000
vt 0.244137 0.500000
vt 0.244137 0.750000
vt 0.625000 0.880863
vt 0.375000 0.880863
vt 0.755863 0.500000
vt 0.755863 0.750000
vn 0.0000 0.0000 -1.0000
vn 1.0000 0.0000 0.0000
vn 0.0000 -1.0000 0.0000
vn 0.0000 0.0000 1.0000
vn 0.0000 1.0000 0.0000
vn -1.0000 0.0000 0.0000
usemtl None
s off
f 7/1/1 5/2/1 4/3/1 3/4/1
f 3/4/2 4/3/2 2/5/2 1/6/2
f 7/7/3 3/4/3 1/6/3 6/8/3
f 1/6/4 2/5/4 8/9/4 6/10/4
f 4/3/5 5/11/5 8/12/5 2/5/5
f 6/8/6 8/12/6 5/2/6 7/7/6
