# Blender v2.93.5 OBJ File: 'rAT BLEND.blend'
# www.blender.org
mtllib Ratstick.mtl
o Cylinder.001
v 0.000000 -0.439064 -0.439064
v 0.000000 34.762180 -0.439064
v 0.085657 -0.439064 -0.430627
v 0.085657 34.762180 -0.430627
v 0.168022 -0.439064 -0.405642
v 0.168022 34.762180 -0.405642
v 0.243931 -0.439064 -0.365068
v 0.243931 34.762180 -0.365068
v 0.310465 -0.439064 -0.310465
v 0.310465 34.762180 -0.310465
v 0.365068 -0.439064 -0.243931
v 0.365068 34.762180 -0.243931
v 0.405642 -0.439064 -0.168022
v 0.405642 34.762180 -0.168022
v 0.430627 -0.439064 -0.085657
v 0.430627 34.762180 -0.085657
v 0.439064 -0.439064 0.000000
v 0.439064 34.762180 0.000000
v 0.430627 -0.439064 0.085657
v 0.430627 34.762180 0.085657
v 0.405642 -0.439064 0.168022
v 0.405642 34.762180 0.168022
v 0.365068 -0.439064 0.243931
v 0.365068 34.762180 0.243931
v 0.310465 -0.439064 0.310465
v 0.310465 34.762180 0.310465
v 0.243931 -0.439064 0.365068
v 0.243931 34.762180 0.365068
v 0.168022 -0.439064 0.405642
v 0.168022 34.762180 0.405642
v 0.085657 -0.439064 0.430627
v 0.085657 34.762180 0.430627
v -0.000000 -0.439064 0.439064
v -0.000000 34.762180 0.439064
v -0.085657 -0.439064 0.430627
v -0.085657 34.762180 0.430627
v -0.168022 -0.439064 0.405642
v -0.168022 34.762180 0.405642
v -0.243931 -0.439064 0.365068
v -0.243931 34.762180 0.365068
v -0.310465 -0.439064 0.310465
v -0.310465 34.762180 0.310465
v -0.365068 -0.439064 0.243931
v -0.365068 34.762180 0.243931
v -0.405642 -0.439064 0.168022
v -0.405642 34.762180 0.168022
v -0.430627 -0.439064 0.085657
v -0.430627 34.762180 0.085657
v -0.439064 -0.439064 -0.000000
v -0.439064 34.762180 -0.000000
v -0.430627 -0.439064 -0.085657
v -0.430627 34.762180 -0.085657
v -0.405642 -0.439064 -0.168023
v -0.405642 34.762180 -0.168023
v -0.365068 -0.439064 -0.243931
v -0.365068 34.762180 -0.243931
v -0.310465 -0.439064 -0.310465
v -0.310465 34.762180 -0.310465
v -0.243931 -0.439064 -0.365068
v -0.243931 34.762180 -0.365068
v -0.168022 -0.439064 -0.405642
v -0.168022 34.762180 -0.405642
v -0.085657 -0.439064 -0.430627
v -0.085657 34.762180 -0.430627
vt 0.592226 0.000081
vt 0.598602 0.001349
vt 0.604607 0.003837
vt 0.610012 0.007448
vt 0.614608 0.012045
vt 0.618220 0.017450
vt 0.620707 0.023455
vt 0.621976 0.029831
vt 0.621976 0.036331
vt 0.620707 0.042707
vt 0.618220 0.048712
vt 0.614608 0.054117
vt 0.610012 0.058713
vt 0.604607 0.062325
vt 0.598602 0.064812
vt 0.592226 0.066081
vt 0.585726 0.066081
vt 0.579350 0.064812
vt 0.573345 0.062325
vt 0.567940 0.058713
vt 0.563343 0.054117
vt 0.559732 0.048712
vt 0.557244 0.042707
vt 0.555976 0.036331
vt 0.555976 0.029831
vt 0.557244 0.023455
vt 0.559732 0.017450
vt 0.563343 0.012045
vt 0.567940 0.007448
vt 0.573345 0.003837
vt 0.579350 0.001349
vt 0.585726 0.000081
vt 0.330048 0.002012
vt 0.330048 0.997095
vt 0.312681 0.997244
vt 0.312681 0.002161
vt 0.295314 0.997393
vt 0.295314 0.002309
vt 0.277948 0.997541
vt 0.277948 0.002458
vt 0.260581 0.997690
vt 0.260581 0.002606
vt 0.243214 0.997838
vt 0.243214 0.002755
vt 0.225848 0.997987
vt 0.225848 0.002904
vt 0.208481 0.998136
vt 0.208481 0.003052
vt 0.191114 0.998284
vt 0.191114 0.003201
vt 0.173748 0.998433
vt 0.173748 0.003349
vt 0.156381 0.998581
vt 0.156381 0.003498
vt 0.139014 0.998730
vt 0.139014 0.003646
vt 0.121648 0.998879
vt 0.121648 0.003795
vt 0.104281 0.999027
vt 0.104281 0.003943
vt 0.086914 0.999176
vt 0.086914 0.004092
vt 0.069548 0.999324
vt 0.069548 0.004240
vt 0.052181 0.999473
vt 0.052181 0.004389
vt 0.034815 0.999622
vt 0.034814 0.004538
vt 0.017448 0.999770
vt 0.017448 0.004686
vt 0.000081 0.999919
vt 0.000081 0.004835
vt 0.555814 0.000081
vt 0.555814 0.995163
vt 0.538447 0.995312
vt 0.538447 0.000230
vt 0.521081 0.995461
vt 0.521081 0.000378
vt 0.503714 0.995609
vt 0.503714 0.000527
vt 0.486347 0.995758
vt 0.486347 0.000675
vt 0.468981 0.995907
vt 0.468981 0.000824
vt 0.451614 0.996055
vt 0.451614 0.000972
vt 0.434247 0.996204
vt 0.434247 0.001121
vt 0.416881 0.996352
vt 0.416881 0.001270
vt 0.399514 0.996501
vt 0.399514 0.001418
vt 0.382148 0.996650
vt 0.382148 0.001567
vt 0.364781 0.996798
vt 0.364781 0.001715
vt 0.347414 0.996947
vt 0.347414 0.001864
vn 0.0000 -1.0000 -0.0000
vn 0.0000 -0.6857 -0.7279
vn 0.0000 0.0000 -1.0000
vn 0.1951 0.0000 -0.9808
vn 0.1420 -0.6857 -0.7139
vn 0.3827 0.0000 -0.9239
vn 0.2785 -0.6857 -0.6725
vn 0.5556 0.0000 -0.8314
vn 0.4044 -0.6857 -0.6052
vn 0.7071 0.0000 -0.7071
vn 0.5147 -0.6857 -0.5147
vn 0.8314 0.0000 -0.5556
vn 0.6052 -0.6857 -0.4044
vn 0.9239 0.0000 -0.3827
vn 0.6725 -0.6857 -0.2785
vn 0.9808 0.0000 -0.1951
vn 0.7139 -0.6857 -0.1420
vn 1.0000 0.0000 0.0000
vn 0.7279 -0.6857 0.0000
vn 0.9808 0.0000 0.1951
vn 0.7139 -0.6857 0.1420
vn 0.9239 0.0000 0.3827
vn 0.6725 -0.6857 0.2785
vn 0.8314 0.0000 0.5556
vn 0.6052 -0.6857 0.4044
vn 0.7071 0.0000 0.7071
vn 0.5147 -0.6857 0.5147
vn 0.5556 0.0000 0.8314
vn 0.4044 -0.6857 0.6052
vn 0.3827 0.0000 0.9239
vn 0.2785 -0.6857 0.6725
vn 0.1951 0.0000 0.9808
vn 0.1420 -0.6857 0.7139
vn 0.0000 0.0000 1.0000
vn 0.0000 -0.6857 0.7279
vn -0.1951 0.0000 0.9808
vn -0.1420 -0.6857 0.7139
vn -0.3827 0.0000 0.9239
vn -0.2785 -0.6857 0.6725
vn -0.5556 0.0000 0.8314
vn -0.4044 -0.6857 0.6052
vn -0.7071 0.0000 0.7071
vn -0.5147 -0.6857 0.5147
vn -0.8314 0.0000 0.5556
vn -0.6052 -0.6857 0.4044
vn -0.9239 0.0000 0.3827
vn -0.6725 -0.6857 0.2785
vn -0.9808 0.0000 0.1951
vn -0.7139 -0.6857 0.1420
vn -1.0000 0.0000 0.0000
vn -0.7279 -0.6857 0.0000
vn -0.9808 0.0000 -0.1951
vn -0.7139 -0.6857 -0.1420
vn -0.9239 0.0000 -0.3827
vn -0.6725 -0.6857 -0.2785
vn -0.8314 0.0000 -0.5556
vn -0.6052 -0.6857 -0.4044
vn -0.7071 0.0000 -0.7071
vn -0.5147 -0.6857 -0.5147
vn -0.5556 0.0000 -0.8314
vn -0.4044 -0.6857 -0.6052
vn -0.3827 0.0000 -0.9239
vn -0.2785 -0.6857 -0.6725
vn -0.1951 0.0000 -0.9808
vn -0.1420 -0.6857 -0.7139
usemtl wood
s off
f 1/1/1 3/2/1 5/3/1 7/4/1 9/5/1 11/6/1 13/7/1 15/8/1 17/9/1 19/10/1 21/11/1 23/12/1 25/13/1 27/14/1 29/15/1 31/16/1 33/17/1 35/18/1 37/19/1 39/20/1 41/21/1 43/22/1 45/23/1 47/24/1 49/25/1 51/26/1 53/27/1 55/28/1 57/29/1 59/30/1 61/31/1 63/32/1
s 1
f 1/33/2 2/34/3 4/35/4 3/36/5
f 3/36/5 4/35/4 6/37/6 5/38/7
f 5/38/7 6/37/6 8/39/8 7/40/9
f 7/40/9 8/39/8 10/41/10 9/42/11
f 9/42/11 10/41/10 12/43/12 11/44/13
f 11/44/13 12/43/12 14/45/14 13/46/15
f 13/46/15 14/45/14 16/47/16 15/48/17
f 15/48/17 16/47/16 18/49/18 17/50/19
f 17/50/19 18/49/18 20/51/20 19/52/21
f 19/52/21 20/51/20 22/53/22 21/54/23
f 21/54/23 22/53/22 24/55/24 23/56/25
f 23/56/25 24/55/24 26/57/26 25/58/27
f 25/58/27 26/57/26 28/59/28 27/60/29
f 27/60/29 28/59/28 30/61/30 29/62/31
f 29/62/31 30/61/30 32/63/32 31/64/33
f 31/64/33 32/63/32 34/65/34 33/66/35
f 33/66/35 34/65/34 36/67/36 35/68/37
f 35/68/37 36/67/36 38/69/38 37/70/39
f 37/70/39 38/69/38 40/71/40 39/72/41
f 39/73/41 40/74/40 42/75/42 41/76/43
f 41/76/43 42/75/42 44/77/44 43/78/45
f 43/78/45 44/77/44 46/79/46 45/80/47
f 45/80/47 46/79/46 48/81/48 47/82/49
f 47/82/49 48/81/48 50/83/50 49/84/51
f 49/84/51 50/83/50 52/85/52 51/86/53
f 51/86/53 52/85/52 54/87/54 53/88/55
f 53/88/55 54/87/54 56/89/56 55/90/57
f 55/90/57 56/89/56 58/91/58 57/92/59
f 57/92/59 58/91/58 60/93/60 59/94/61
f 59/94/61 60/93/60 62/95/62 61/96/63
f 61/96/63 62/95/62 64/97/64 63/98/65
f 63/98/65 64/97/64 2/34/3 1/33/2
